<?xml version="1.0" encoding="utf-8"?>
<!-- Generator: Adobe Illustrator 26.0.1, SVG Export Plug-In . SVG Version: 6.00 Build 0)  -->
<svg version="1.1" id="Layer_1" xmlns="http://www.w3.org/2000/svg" xmlns:xlink="http://www.w3.org/1999/xlink" x="0px" y="0px"
	 viewBox="0 0 72 72" style="enable-background:new 0 0 72 72;" xml:space="preserve">
<style type="text/css">
	.st0{fill:#999999;}
</style>
<path class="st0" d="M70.78,66.32H1.59c-0.55,0-1-0.45-1-1V16.62c0-0.55,0.45-1,1-1s1,0.45,1,1v47.71h67.19V15.7H12.93
	c-0.55,0-1-0.45-1-1s0.45-1,1-1h57.85c0.55,0,1,0.45,1,1v50.63C71.78,65.88,71.33,66.32,70.78,66.32z"/>
<path class="st0" d="M36.26,50.08c-0.25,0-0.49-0.09-0.68-0.27L1,17.33c-0.4-0.38-0.42-1.01-0.04-1.41c0.38-0.4,1.01-0.42,1.41-0.04
	l33.84,31.8l22.87-24.1c0.38-0.4,1.01-0.42,1.41-0.04s0.42,1.01,0.04,1.41L36.98,49.77C36.78,49.98,36.52,50.08,36.26,50.08z"/>
</svg>
