<?xml version="1.0" encoding="utf-8"?>
<!-- Generator: Adobe Illustrator 26.0.1, SVG Export Plug-In . SVG Version: 6.00 Build 0)  -->
<svg version="1.1" id="Layer_1" xmlns="http://www.w3.org/2000/svg" xmlns:xlink="http://www.w3.org/1999/xlink" x="0px" y="0px"
	 viewBox="0 0 72 72" style="enable-background:new 0 0 72 72;" xml:space="preserve">
<style type="text/css">
	.st0{fill:#999999;}
</style>
<g>
	<path class="st0" d="M52.68,71.45H21.13c-2.7,0-4.9-2.2-4.9-4.9V5.45c0-2.7,2.2-4.9,4.9-4.9h31.55c2.7,0,4.9,2.2,4.9,4.9v52.47
		c0,0.55-0.45,1-1,1s-1-0.45-1-1V5.45c0-1.6-1.3-2.9-2.9-2.9H21.13c-1.6,0-2.9,1.3-2.9,2.9v61.1c0,1.6,1.3,2.9,2.9,2.9h31.55
		c1.6,0,2.9-1.3,2.9-2.9v-4.27H20.9c-0.55,0-1-0.45-1-1s0.45-1,1-1h35.69c0.55,0,1,0.45,1,1v5.27
		C57.58,69.25,55.38,71.45,52.68,71.45z"/>
	<path class="st0" d="M36.76,69.16c-1.84,0-3.34-1.5-3.34-3.34c0-1.84,1.5-3.34,3.34-3.34c1.84,0,3.34,1.5,3.34,3.34
		C40.1,67.67,38.6,69.16,36.76,69.16z M36.76,64.49c-0.74,0-1.34,0.6-1.34,1.34s0.6,1.34,1.34,1.34s1.34-0.6,1.34-1.34
		S37.5,64.49,36.76,64.49z"/>
	<path class="st0" d="M40.92,5.85H34.1c-0.55,0-1-0.45-1-1s0.45-1,1-1h6.81c0.55,0,1,0.45,1,1S41.47,5.85,40.92,5.85z"/>
</g>
</svg>
